<svg width="102.139648" height="35.872070" viewBox="0 0 102.14 35.8721" fill="none" xmlns="http://www.w3.org/2000/svg" xmlns:xlink="http://www.w3.org/1999/xlink">
	<desc>
			Created with Pixso.
	</desc>
	<defs/>
	<path id="Etch" d="M12.29 20.39L12.29 23.52L15.72 23.52C19.21 23.52 21.52 25.97 21.52 29.77C21.52 33.4 19.21 35.87 15.72 35.87L6.14 35.87C2.4 35.87 -8.45e-5 33.25 -8.45e-5 29.46L-8.45e-5 6.4C-8.45e-5 2.61 2.4 0 6.14 0L15.21 0C18.7 0 21 2.45 21 6.09C21 9.88 18.7 12.34 15.21 12.34L12.29 12.34L12.29 15.32C13.78 15.32 14.76 15.32 15.94 15.37C17.42 15.37 18.44 16.45 18.5 17.97C18.5 19.46 17.47 20.49 15.99 20.49C15.26 20.49 14.91 20.49 12.29 20.39ZM41.35 12.29C41.35 18.7 41.3 23.93 41.3 29.77C41.3 33.45 38.83 35.87 35.21 35.87C31.46 35.87 29 33.45 29 29.77C29 23.93 28.95 18.7 28.95 12.29C25.16 12.29 22.54 10.09 22.54 6.19C22.54 2.45 25.01 0 28.64 0L41.71 0C45.35 0 47.81 2.45 47.81 6.09C47.81 10.09 45.24 12.29 41.35 12.29ZM61.65 0C69.28 0 74.46 5.23 74.46 12.91C74.46 16.5 71.99 18.9 68.3 18.9C64.62 18.9 62.16 16.5 62.16 12.91L62.16 12.29L61.13 12.29L61.13 23.57L62.16 23.57L62.16 22.9C62.16 20.75 64.62 19.36 68.3 19.36C71.89 19.36 74.26 21.88 74.26 25.67C74.26 31.81 69.23 35.87 61.65 35.87C53.96 35.87 48.83 30.74 48.83 23.1L48.83 12.91C48.83 5.18 53.96 0 61.65 0ZM96.03 0C99.67 0 102.14 2.45 102.14 6.09L102.14 29.77C102.14 33.4 99.72 35.87 95.93 35.87C92.29 35.87 89.84 33.4 89.84 29.77L89.84 20.08L88.81 20.08L88.81 29.77C88.81 33.4 86.39 35.87 82.6 35.87C78.96 35.87 76.51 33.4 76.51 29.77L76.51 6.09C76.51 2.45 78.91 0 82.7 0C86.34 0 88.81 2.45 88.81 6.09L88.81 16.5L89.84 16.5L89.84 6.09C89.84 2.45 92.24 0 96.03 0Z" fill="#324376" fill-opacity="1.000000" fill-rule="evenodd"/>
</svg>
