<svg width="684.000000" height="684.000000" viewBox="0 0 684 684" fill="none" xmlns="http://www.w3.org/2000/svg" xmlns:xlink="http://www.w3.org/1999/xlink">
	<desc>
			Created with Pixso.
	</desc>
	<defs>
		<clipPath id="clip219_564">
			<rect id="Note-Pad-Sheet-Freeform-Hole-Cloud-Color-Border--Streamline-Sticky-Notes 1" rx="0.000000" width="681.263977" height="681.263977" transform="translate(1.368000 1.368000)" fill="white" fill-opacity="0"/>
		</clipPath>
		<clipPath id="clip219_462">
			<rect id="Virtual-Reality--Streamline-Bangalore 1" rx="0.000000" width="416.904999" height="416.904999" transform="translate(125.177383 101.178360)" fill="white" fill-opacity="0"/>
		</clipPath>
	</defs>
	<rect id="Note-Pad-Sheet-Freeform-Hole-Cloud-Color-Border--Streamline-Sticky-Notes 1" rx="0.000000" width="681.263977" height="681.263977" transform="translate(1.368000 1.368000)" fill="#FFFFFF" fill-opacity="0"/>
	<g clip-path="url(#clip219_564)">
		<path id="Vector" d="M443.08 140.66C436.33 127.41 416.08 87.65 346.22 85.25C275.05 87.7 248.82 128.9 240.88 141.36C239.8 143.07 239.05 144.23 238.59 144.69C237.98 145.29 236.51 144.52 234.09 143.26C228.67 140.43 218.47 135.1 202.46 137.1C176.9 137.1 157.27 147.19 137.3 162.44C114.5 179.85 105.85 206.42 103.11 233.34C102.31 241.2 101.93 252.69 104.4 259.93C104.48 260.16 104.71 260.66 105.02 261.31C106 263.37 107.66 266.86 106.98 267.53C100.79 267.53 93.62 272.35 87.17 276.69C85.31 277.94 83.51 279.15 81.82 280.19C67.02 289.26 56.34 309.91 51.5 325.77C47.16 339.93 46.8 357.39 48.92 371.96C50.32 381.61 53.83 386 56.03 388.77C57.16 390.18 57.95 391.17 57.95 392.22C54.29 395.83 46.15 396.5 41.1 398.2C28.51 402.45 16.55 415.38 10.86 434.63C-2.33 479.21 32.31 500.77 80.68 511.36C158.93 528.52 525.07 528.52 603.32 511.36C642.94 502.67 686.33 479.47 672.37 432.01C667.25 414.59 664.91 406.64 648.75 398.71C644.32 396.54 629.66 395.75 626.04 392.21C626.04 392.21 632.95 386.51 635.07 371.95C637.2 357.39 636.83 339.93 632.49 325.75C627.65 309.89 616.97 289.24 602.17 280.17C590.71 273.15 584.21 271.46 580.71 270.54C577.9 269.81 577.01 269.58 577.01 267.51C576.86 267.36 577.11 266.63 577.54 265.32C579 260.93 582.59 250.12 580.88 233.33C578.14 206.41 569.49 179.83 546.69 162.43C526.71 147.18 507.09 137.11 481.54 137.11C468.76 137.1 458.52 140.86 452.21 143.17C448.48 144.54 446.12 145.41 445.41 144.7C444.87 144.18 444.15 142.75 443.08 140.66ZM69.4 480.84C64.85 476.29 66.15 454.2 68.27 451.28C72.81 445.27 101.73 449 102.7 449.81C104.33 451.44 106.44 477.75 103.51 480.19C97.5 485.06 70.05 481.49 69.4 480.84ZM316.07 451.28C313.96 454.2 312.66 476.29 317.21 480.84C317.86 481.49 345.31 485.06 351.32 480.19C354.25 477.75 352.14 451.44 350.51 449.81C349.54 449 320.62 445.27 316.07 451.28ZM152.01 480.84C147.46 476.29 148.76 454.2 150.87 451.28C155.42 445.27 184.33 449 185.31 449.81C186.93 451.44 189.04 477.75 186.12 480.19C180.11 485.06 152.66 481.49 152.01 480.84ZM398.68 451.28C396.57 454.2 395.27 476.29 399.82 480.84C400.47 481.49 427.92 485.06 433.93 480.19C436.85 477.75 434.74 451.44 433.12 449.81C432.14 449 403.23 445.27 398.68 451.28ZM234.61 480.84C230.06 476.29 231.36 454.2 233.47 451.28C238.02 445.27 266.93 449 267.91 449.81C269.53 451.44 271.64 477.75 268.72 480.19C262.71 485.06 235.26 481.49 234.61 480.84ZM481.28 451.28C479.17 454.2 477.87 476.29 482.42 480.84C483.07 481.49 510.52 485.06 516.53 480.19C519.45 477.75 517.34 451.44 515.72 449.81C514.74 449 485.83 445.27 481.28 451.28ZM565.02 480.84C560.47 476.29 561.77 454.2 563.89 451.28C568.43 445.27 597.35 449 598.32 449.81C599.95 451.44 602.06 477.75 599.13 480.19C593.12 485.06 565.67 481.49 565.02 480.84Z" fill="#FB8CAC" fill-opacity="1.000000" fill-rule="evenodd"/>
		<path id="Vector" d="M346.22 85.25C275.05 87.7 248.82 128.9 240.88 141.36C239.8 143.07 239.05 144.23 238.59 144.69C237.98 145.29 236.51 144.52 234.09 143.26C228.67 140.43 218.47 135.1 202.46 137.1C176.9 137.1 157.27 147.19 137.3 162.44C114.5 179.85 105.85 206.42 103.11 233.34C102.31 241.2 101.93 252.69 104.4 259.93C104.48 260.16 104.71 260.66 105.02 261.31C106 263.37 107.66 266.86 106.98 267.53C100.79 267.53 93.62 272.35 87.17 276.69C85.31 277.94 83.51 279.15 81.82 280.19C67.02 289.26 56.34 309.91 51.5 325.77C47.16 339.93 46.8 357.39 48.92 371.96C50.32 381.61 53.83 386 56.03 388.77C57.16 390.18 57.95 391.17 57.95 392.22C54.29 395.83 46.15 396.5 41.1 398.2C28.51 402.45 16.55 415.38 10.86 434.63C-2.33 479.21 32.31 500.77 80.68 511.36C158.93 528.52 525.07 528.52 603.32 511.36C642.94 502.67 686.33 479.47 672.37 432.01C667.25 414.59 664.91 406.64 648.75 398.71C644.32 396.54 629.66 395.75 626.04 392.21C626.04 392.21 632.95 386.51 635.07 371.95C637.2 357.39 636.83 339.93 632.49 325.75C627.65 309.89 616.97 289.24 602.17 280.17C590.71 273.15 584.21 271.46 580.71 270.54C577.9 269.81 577.01 269.58 577.01 267.51C576.86 267.36 577.11 266.63 577.54 265.32C579 260.93 582.59 250.12 580.88 233.33C578.14 206.41 569.49 179.83 546.69 162.43C526.71 147.18 507.09 137.11 481.54 137.11C468.76 137.1 458.52 140.86 452.21 143.17C448.48 144.54 446.12 145.41 445.41 144.7C444.87 144.18 444.15 142.75 443.08 140.66C436.33 127.41 416.08 87.65 346.22 85.25ZM68.27 451.28C72.81 445.27 101.73 449 102.7 449.81C104.33 451.44 106.44 477.75 103.51 480.19C97.5 485.06 70.05 481.49 69.4 480.84C64.85 476.29 66.15 454.2 68.27 451.28ZM317.21 480.84C317.86 481.49 345.31 485.06 351.32 480.19C354.25 477.75 352.14 451.44 350.51 449.81C349.54 449 320.62 445.27 316.07 451.28C313.96 454.2 312.66 476.29 317.21 480.84ZM150.87 451.28C155.42 445.27 184.33 449 185.31 449.81C186.93 451.44 189.04 477.75 186.12 480.19C180.11 485.06 152.66 481.49 152.01 480.84C147.46 476.29 148.76 454.2 150.87 451.28ZM399.82 480.84C400.47 481.49 427.92 485.06 433.93 480.19C436.85 477.75 434.74 451.44 433.12 449.81C432.14 449 403.23 445.27 398.68 451.28C396.57 454.2 395.27 476.29 399.82 480.84ZM233.47 451.28C238.02 445.27 266.93 449 267.91 449.81C269.53 451.44 271.64 477.75 268.72 480.19C262.71 485.06 235.26 481.49 234.61 480.84C230.06 476.29 231.36 454.2 233.47 451.28ZM482.42 480.84C483.07 481.49 510.52 485.06 516.53 480.19C519.45 477.75 517.34 451.44 515.72 449.81C514.74 449 485.83 445.27 481.28 451.28C479.17 454.2 477.87 476.29 482.42 480.84ZM563.89 451.28C568.43 445.27 597.35 449 598.32 449.81C599.95 451.44 602.06 477.75 599.13 480.19C593.12 485.06 565.67 481.49 565.02 480.84C560.47 476.29 561.77 454.2 563.89 451.28Z" stroke="#292524" stroke-opacity="1.000000" stroke-width="2.736000" stroke-linejoin="round"/>
	</g>
	<rect id="Virtual-Reality--Streamline-Bangalore 1" rx="0.000000" width="416.904999" height="416.904999" transform="translate(125.177383 101.178360)" fill="#FFFFFF" fill-opacity="0"/>
	<g clip-path="url(#clip219_462)">
		<path id="Vector" d="M456.33 277.75L455.7 273.58C455.59 272.85 455.62 272.1 455.8 271.38C455.97 270.66 456.29 269.99 456.73 269.39C457.61 268.19 458.94 267.39 460.41 267.16L451.94 268.43C450.63 268.63 449.43 269.29 448.56 270.28C447.69 271.28 447.19 272.55 447.16 273.87L431.07 275.96C433.09 277.86 434.95 279.71 436.41 281.34L448.07 279.93C448.47 281.21 449.31 282.3 450.44 283C451.57 283.71 452.92 283.99 454.24 283.8L462.66 282.53C461.93 282.64 461.18 282.6 460.47 282.42C459.75 282.23 459.08 281.91 458.49 281.47C457.9 281.02 457.4 280.46 457.03 279.82C456.66 279.18 456.42 278.48 456.33 277.75Z" fill="#FECFC4" fill-opacity="1.000000" fill-rule="nonzero"/>
		<path id="Vector_2" d="M266.86 236.08C256.8 231.46 241.59 211.53 238.78 216.91C237.32 219.69 256.17 255.09 257.59 260.24C264.04 255.98 271.39 253.29 279.06 252.36C276.48 247.33 276.88 240.71 266.86 236.08Z" fill="#FECFC4" fill-opacity="1.000000" fill-rule="nonzero"/>
		<path id="Vector_3" d="M229.08 320.48C226.47 320.13 223.82 320.29 221.27 320.95C210.5 323.49 187.21 317.03 187.37 323.09C187.49 327.09 228.48 343.37 230.14 345.03C232.35 338.06 236.05 331.66 241 326.27C237.32 324.56 234.34 321.31 229.08 320.48Z" fill="#FECFC4" fill-opacity="1.000000" fill-rule="nonzero"/>
		<path id="Vector_4" d="M491.02 158.29C487.81 158.49 484.72 159.64 482.16 161.59C479.59 163.54 477.67 166.21 476.62 169.26C475.84 171.54 475.57 173.96 475.84 176.35C476.11 178.75 476.9 181.05 478.17 183.1C479.43 185.15 481.14 186.89 483.16 188.21C485.18 189.52 487.46 190.37 489.85 190.69C492.24 191.01 494.67 190.8 496.96 190.07C499.26 189.34 501.36 188.11 503.13 186.47C504.89 184.83 506.27 182.82 507.16 180.58C508.05 178.35 508.44 175.94 508.29 173.54C508.02 169.22 506.05 165.19 502.82 162.33C501.21 160.92 499.35 159.83 497.32 159.14C495.3 158.44 493.16 158.15 491.02 158.29ZM483.46 182.18C482.75 181.96 482.14 181.53 481.7 180.94C481.26 180.35 481.02 179.63 481.02 178.9C481.02 178.16 481.26 177.44 481.7 176.85C482.13 176.26 482.75 175.83 483.45 175.61C484.16 175.4 484.91 175.42 485.61 175.66C486.3 175.91 486.89 176.37 487.3 176.99C487.71 177.6 487.91 178.33 487.88 179.06C487.84 179.8 487.57 180.5 487.11 181.07C486.53 181.77 485.7 182.22 484.79 182.31C484.34 182.36 483.89 182.31 483.46 182.18ZM494.19 172.67C493.25 172.39 492.41 171.84 491.79 171.08C491.16 170.33 490.78 169.4 490.68 168.43C490.58 167.45 490.77 166.47 491.23 165.6C491.69 164.73 492.39 164.02 493.26 163.55C494.12 163.09 495.1 162.89 496.08 162.98C497.06 163.07 497.98 163.45 498.74 164.07C499.5 164.69 500.07 165.52 500.35 166.46C500.64 167.4 500.65 168.4 500.37 169.34C499.99 170.6 499.12 171.65 497.97 172.28C496.81 172.9 495.45 173.04 494.19 172.67ZM496.76 183.93C496.52 183.86 496.3 183.75 496.1 183.59C495.91 183.44 495.75 183.25 495.63 183.03C495.51 182.81 495.43 182.57 495.4 182.32C495.38 182.07 495.4 181.82 495.47 181.58C495.54 181.34 495.66 181.12 495.82 180.93C495.97 180.74 496.17 180.58 496.39 180.46C496.61 180.34 496.85 180.27 497.1 180.25C497.35 180.22 497.6 180.25 497.84 180.33C498.31 180.47 498.7 180.8 498.93 181.24C499.16 181.67 499.21 182.18 499.07 182.65C498.93 183.13 498.61 183.53 498.18 183.77C497.75 184 497.24 184.06 496.76 183.93Z" fill="#FECFC4" fill-opacity="1.000000" fill-rule="nonzero"/>
		<path id="Vector_5" d="M470.98 387.85C471.33 389.63 471.15 391.48 470.45 393.17C469.75 394.85 468.57 396.28 467.05 397.29C465.54 398.3 463.76 398.84 461.94 398.83C460.12 398.83 458.34 398.29 456.82 397.28C455.57 396.43 454.54 395.29 453.82 393.96C453.11 392.62 452.74 391.13 452.74 389.62C452.75 388.1 453.12 386.61 453.84 385.28C454.55 383.95 455.59 382.81 456.85 381.97C458.11 381.13 459.55 380.61 461.06 380.47C462.57 380.32 464.09 380.55 465.48 381.13C466.88 381.71 468.11 382.63 469.07 383.8C470.03 384.97 470.69 386.36 470.98 387.85Z" fill="#FECFC4" fill-opacity="1.000000" fill-rule="nonzero"/>
		<path id="Vector_6" d="M418.58 209.31C417.99 189.15 432.92 193.11 440.88 219.84C437.71 206.3 457.45 189.9 458.85 267.68C458.12 268.01 457.49 268.51 456.99 269.14C452.25 257.78 443.2 264.65 444.44 273.94C444.6 275.18 443.7 275.83 441.83 273.79C439.86 271.59 437.57 272.81 437.35 275.17L432.16 275.81C424.58 268.24 418.45 259.35 414.06 249.59C405.23 231.09 410.22 209.62 425.15 240.04C421.05 230.3 418.82 219.87 418.58 209.31Z" fill="#6153BD" fill-opacity="1.000000" fill-rule="nonzero"/>
		<path id="Vector_7" d="M440.92 281.15C441.72 283.78 442.08 286.52 441.98 289.27C441.61 286.03 440.07 283.75 437.71 281.25L440.92 281.15Z" fill="#6153BD" fill-opacity="1.000000" fill-rule="nonzero"/>
		<path id="Vector_8" d="M387.73 223.4C387.06 221.94 386.06 219.96 385.12 218.14C388.17 218.53 389.04 220.59 387.73 223.4Z" fill="#6153BD" fill-opacity="1.000000" fill-rule="nonzero"/>
		<path id="Vector_9" d="M374.39 294.89C371.41 296.16 370.58 301.75 371.69 309.55L389.24 306.62C384.6 299.76 378.46 293.23 374.39 294.89Z" fill="#6153BD" fill-opacity="1.000000" fill-rule="nonzero"/>
		<path id="Vector_10" d="M406.35 358.82C405.67 362.7 403.61 365.12 399.81 363.46C401.99 361.95 404.17 360.4 406.35 358.82Z" fill="#6153BD" fill-opacity="1.000000" fill-rule="nonzero"/>
		<path id="Vector_11" d="M364.53 237.07C360.92 236.87 359.73 234.66 361.47 231.37C362.39 233.32 363.4 235.23 364.53 237.07Z" fill="#6153BD" fill-opacity="1.000000" fill-rule="nonzero"/>
		<path id="Vector_12" d="M445.44 302.62C445.44 303.06 445.26 303.49 444.94 303.81C444.63 304.12 444.2 304.3 443.75 304.3C443.3 304.3 442.88 304.12 442.56 303.81C442.24 303.49 442.07 303.06 442.07 302.62C442.07 302.17 442.24 301.74 442.56 301.43C442.88 301.11 443.3 300.93 443.75 300.93C444.2 300.93 444.63 301.11 444.94 301.43C445.26 301.74 445.44 302.17 445.44 302.62Z" fill="#6153BD" fill-opacity="1.000000" fill-rule="nonzero"/>
		<path id="Vector_13" d="M473.12 293.27C473.09 293.69 472.89 294.09 472.58 294.38C472.27 294.67 471.86 294.82 471.44 294.82C471.01 294.82 470.6 294.67 470.29 294.38C469.98 294.09 469.79 293.69 469.75 293.27C469.78 292.84 469.97 292.44 470.28 292.14C470.59 291.85 471.01 291.69 471.44 291.69C471.87 291.69 472.28 291.85 472.59 292.14C472.9 292.44 473.09 292.84 473.12 293.27Z" fill="#6153BD" fill-opacity="1.000000" fill-rule="nonzero"/>
		<path id="Vector_14" d="M484.13 263.25C484.13 263.48 484.08 263.7 483.99 263.91C483.91 264.12 483.78 264.31 483.61 264.46C483.45 264.62 483.26 264.74 483.05 264.82C482.83 264.9 482.61 264.94 482.38 264.93C482.16 264.93 481.93 264.87 481.73 264.78C481.52 264.68 481.34 264.54 481.19 264.38C481.04 264.21 480.92 264.01 480.85 263.8C480.77 263.58 480.74 263.36 480.76 263.13C480.79 262.69 480.99 262.29 481.31 262C481.64 261.7 482.06 261.55 482.5 261.56C482.94 261.58 483.35 261.76 483.66 262.08C483.96 262.39 484.13 262.81 484.13 263.25Z" fill="#6153BD" fill-opacity="1.000000" fill-rule="nonzero"/>
		<path id="Vector_15" d="M510.18 248.2C510.16 248.63 509.97 249.03 509.66 249.33C509.34 249.62 508.93 249.78 508.5 249.78C508.07 249.78 507.66 249.62 507.35 249.33C507.03 249.03 506.84 248.63 506.82 248.2C506.84 247.77 507.03 247.37 507.35 247.07C507.66 246.78 508.07 246.62 508.5 246.62C508.93 246.62 509.34 246.78 509.66 247.07C509.97 247.37 510.16 247.77 510.18 248.2Z" fill="#6153BD" fill-opacity="1.000000" fill-rule="nonzero"/>
		<path id="Vector_16" d="M438.59 330.7C438.57 331.13 438.38 331.55 438.07 331.85C437.76 332.15 437.34 332.32 436.9 332.32C436.46 332.32 436.05 332.15 435.73 331.85C435.42 331.55 435.24 331.13 435.22 330.7C435.23 330.26 435.42 329.85 435.73 329.55C436.05 329.24 436.46 329.07 436.9 329.07C437.34 329.07 437.76 329.24 438.07 329.55C438.38 329.85 438.57 330.26 438.59 330.7Z" fill="#6153BD" fill-opacity="1.000000" fill-rule="nonzero"/>
		<path id="Vector_17" d="M408.92 320.56C408.9 320.99 408.72 321.41 408.41 321.71C408.09 322.01 407.67 322.18 407.24 322.18C406.8 322.18 406.38 322.01 406.07 321.71C405.75 321.41 405.57 320.99 405.55 320.56C405.57 320.12 405.75 319.71 406.07 319.41C406.38 319.1 406.8 318.93 407.24 318.93C407.67 318.93 408.09 319.1 408.4 319.41C408.72 319.71 408.9 320.12 408.92 320.56Z" fill="#6153BD" fill-opacity="1.000000" fill-rule="nonzero"/>
		<path id="Vector_18" d="M417.71 291.28C417.69 291.71 417.5 292.11 417.18 292.41C416.87 292.7 416.46 292.87 416.03 292.87C415.6 292.87 415.19 292.7 414.87 292.41C414.56 292.11 414.37 291.71 414.35 291.28C414.37 290.85 414.56 290.45 414.87 290.16C415.19 289.86 415.6 289.7 416.03 289.7C416.46 289.7 416.87 289.86 417.18 290.16C417.5 290.45 417.69 290.85 417.71 291.28Z" fill="#6153BD" fill-opacity="1.000000" fill-rule="nonzero"/>
		<path id="Vector_19" d="M409.99 260.71C409.96 261.14 409.76 261.53 409.45 261.82C409.14 262.11 408.73 262.27 408.31 262.27C407.88 262.27 407.47 262.11 407.16 261.82C406.85 261.53 406.66 261.14 406.62 260.71C406.65 260.29 406.84 259.88 407.15 259.59C407.46 259.29 407.88 259.13 408.31 259.13C408.74 259.13 409.15 259.29 409.46 259.59C409.77 259.88 409.96 260.29 409.99 260.71Z" fill="#6153BD" fill-opacity="1.000000" fill-rule="nonzero"/>
		<path id="Vector_20" d="M377.59 248.2C377.57 248.63 377.38 249.03 377.07 249.33C376.75 249.62 376.34 249.78 375.91 249.78C375.48 249.78 375.07 249.62 374.75 249.33C374.44 249.03 374.25 248.63 374.23 248.2C374.25 247.77 374.44 247.37 374.75 247.07C375.07 246.78 375.48 246.62 375.91 246.62C376.34 246.62 376.75 246.78 377.07 247.07C377.38 247.37 377.57 247.77 377.59 248.2Z" fill="#6153BD" fill-opacity="1.000000" fill-rule="nonzero"/>
		<path id="Vector_21" d="M399.02 294.64L392.92 294.64L408.92 310.02L399.02 294.64Z" fill="#6153BD" fill-opacity="1.000000" fill-rule="nonzero"/>
		<path id="Vector_22" d="M450.9 291.37C449.41 290.97 447.97 290.38 446.62 289.63L450.66 294.97C450.56 293.76 450.64 292.55 450.9 291.37Z" fill="#6153BD" fill-opacity="1.000000" fill-rule="nonzero"/>
		<path id="Vector_23" d="M451.85 301.35C453.29 308.67 452.05 316.26 448.37 322.74L453.91 317.86C454.65 312.27 453.94 306.59 451.85 301.35Z" fill="#6153BD" fill-opacity="1.000000" fill-rule="nonzero"/>
		<path id="Vector_24" d="M458.86 267.69C457.44 189.9 437.71 206.3 440.88 219.84C432.92 193.11 417.99 189.15 418.58 209.31C418.82 219.87 421.05 230.3 425.15 240.04C410.22 209.63 405.23 231.09 414.06 249.59C418.43 259.33 424.55 268.2 432.1 275.75M441.98 289.27C441.61 286.02 440.06 283.74 437.69 281.24" stroke="#120071" stroke-opacity="1.000000" stroke-width="2.095000" stroke-linejoin="round" stroke-linecap="round"/>
		<path id="Vector_25" d="M247.69 364.16C234.68 365.07 221.65 362.77 209.74 357.46C197.83 352.16 187.41 344 179.39 333.72C171.37 323.44 166 311.35 163.75 298.5C161.5 285.66 162.44 272.46 166.48 260.06C169.85 249.75 175.29 240.22 182.47 232.08C189.65 223.95 198.42 217.36 208.24 212.74C218.06 208.11 228.72 205.54 239.57 205.19C250.42 204.84 261.22 206.71 271.32 210.69C281.42 214.67 290.6 220.67 298.29 228.33C305.98 235.98 312.03 245.13 316.05 255.21C320.08 265.29 322 276.09 321.7 286.94C321.4 297.79 318.88 308.46 314.31 318.3" stroke="#120071" stroke-opacity="1.000000" stroke-width="2.095000" stroke-linejoin="round" stroke-linecap="round"/>
		<path id="Vector_26" d="M264.96 300.4C253.31 307.41 240.8 314.46 229.08 320.48" stroke="#120071" stroke-opacity="1.000000" stroke-width="2.095000" stroke-linejoin="round" stroke-linecap="round"/>
		<path id="Vector_27" d="M300.69 230.93C326.24 221.27 344.38 218.45 348.1 224.87C352.98 233.3 331.46 255.41 296.49 279.96" stroke="#120071" stroke-opacity="1.000000" stroke-width="2.095000" stroke-linejoin="round" stroke-linecap="round"/>
		<path id="Vector_28" d="M203.53 332.8C167.85 348.76 140.92 355.1 136.28 347.09C132.52 340.6 144.44 325.94 166.18 308.32" stroke="#120071" stroke-opacity="1.000000" stroke-width="2.095000" stroke-linejoin="round" stroke-linecap="round"/>
		<path id="Vector_29" d="M392.92 294.64L408.92 310.02L361.16 235.68" stroke="#120071" stroke-opacity="1.000000" stroke-width="2.095000" stroke-linejoin="round" stroke-linecap="round"/>
		<path id="Vector_30" d="M459.38 282.02C459.46 297.35 446.62 289.63 446.62 289.63" stroke="#120071" stroke-opacity="1.000000" stroke-width="2.095000" stroke-linejoin="round" stroke-linecap="round"/>
		<path id="Vector_31" d="M446.62 289.63L450.67 294.88" stroke="#120071" stroke-opacity="1.000000" stroke-width="2.095000" stroke-linejoin="round" stroke-linecap="round"/>
		<path id="Vector_32" d="M457.04 269.03C452.51 257.98 443.02 264.38 444.43 274.09C444.56 275.05 443.8 275.97 441.83 273.79C439.89 271.62 437.61 272.81 437.37 275.14M438.03 289.82C440.64 292.48 443.77 292.56 440.92 281.15C440.79 281.05 440.66 280.95 440.53 280.85" stroke="#120071" stroke-opacity="1.000000" stroke-width="2.095000" stroke-linejoin="round" stroke-linecap="round"/>
		<path id="Vector_33" d="M387.97 219.69C399.18 238.88 425.46 281.47 443.54 294.62C444.54 295.45 445.71 296.04 446.98 296.35C448.24 296.66 449.56 296.68 450.83 296.4C450.58 294.72 450.6 293 450.91 291.33" stroke="#120071" stroke-opacity="1.000000" stroke-width="2.095000" stroke-linejoin="round" stroke-linecap="round"/>
		<path id="Vector_34" d="M453.59 318.17C455.77 311.2 451.85 301.34 451.85 301.34C451.85 301.34 461.15 331.3 404.88 362.9" stroke="#120071" stroke-opacity="1.000000" stroke-width="2.095000" stroke-linejoin="round" stroke-linecap="round"/>
		<path id="Vector_35" d="M399.02 294.64L376.73 294.64" stroke="#120071" stroke-opacity="1.000000" stroke-width="2.095000" stroke-linejoin="round" stroke-linecap="round"/>
		<path id="Vector_36" d="M448.37 322.74C448.37 322.74 488.21 289.59 515.85 244.83C512.37 238.85 506.84 234.33 500.29 232.12C491.55 244.72 482.08 256.81 471.94 268.32" stroke="#120071" stroke-opacity="1.000000" stroke-width="2.095000" stroke-linejoin="round" stroke-linecap="round"/>
		<path id="Vector_37" d="M389.28 359.13C364.41 366.97 337.79 371.15 310.03 373.67C304.48 374.17 298.92 372.81 294.23 369.8C289.53 366.8 285.97 362.32 284.09 357.07C274.46 330.03 265.53 303.89 253.56 263.25C258.01 259.56 263.08 256.7 268.54 254.81C273.36 253.16 278.38 252.21 283.46 251.96L314.7 319.13L389.24 306.63" stroke="#120071" stroke-opacity="1.000000" stroke-width="2.095000" stroke-linejoin="round" stroke-linecap="round"/>
		<path id="Vector_38" d="M399.81 363.45C411.02 368.35 406.51 342.86 399.02 325.03C394.79 314.97 381.58 290.74 374.03 295.11C371.35 296.66 370.63 302.1 371.69 309.59" stroke="#120071" stroke-opacity="1.000000" stroke-width="2.095000" stroke-linejoin="round" stroke-linecap="round"/>
		<path id="Vector_39" d="M277.83 339.29L243.57 323.66C236.09 330.74 230.93 339.92 228.76 349.99C253.47 369.3 279.89 386.32 307.69 400.84C311 402.61 314.67 403.61 318.42 403.77C322.17 403.93 325.91 403.24 329.35 401.75C356.5 390.29 382.32 375.89 406.35 358.81" stroke="#120071" stroke-opacity="1.000000" stroke-width="2.095000" stroke-linejoin="round" stroke-linecap="round"/>
		<path id="Vector_40" d="M257.59 260.24C256.16 255.09 237.31 219.69 238.77 216.91C241.6 211.53 256.8 231.44 266.85 236.09C276.88 240.71 276.48 247.33 279.06 252.36C271.39 253.29 264.04 255.98 257.59 260.24Z" stroke="#120071" stroke-opacity="1.000000" stroke-width="2.095000" stroke-linejoin="round"/>
		<path id="Vector_41" d="M221.27 320.95C210.5 323.49 187.21 317.03 187.37 323.09C187.49 327.09 228.48 343.37 230.15 345.03C232.35 338.06 236.05 331.66 241 326.27C237.32 324.56 234.34 321.31 229.08 320.48C226.47 320.13 223.82 320.29 221.27 320.95Z" stroke="#120071" stroke-opacity="1.000000" stroke-width="2.095000" stroke-linejoin="round"/>
		<path id="Vector_42" d="M369.52 197.35C369.52 197.35 369.52 192.64 369.48 185.31C369.43 177.62 372.41 176.15 373.56 184.87C373.68 185.82 375.14 195.37 375.57 198.18C375.81 199.72 376.92 203.99 378.35 203.81C382.26 203.3 389.65 194.73 391.97 197.27C393.48 198.94 388.93 204.96 385.55 209.04C384.6 210.18 384.01 211.58 383.86 213.06C383.7 214.54 383.99 216.04 384.68 217.35C384.8 217.59 387.52 223.06 387.73 223.4" stroke="#120071" stroke-opacity="1.000000" stroke-width="2.095000" stroke-linejoin="round" stroke-linecap="round"/>
		<path id="Vector_43" d="M370.1 199.29C370.1 199.29 365.04 183.25 364.72 182.18C362.2 173.78 359.52 175.68 360.76 183.25C361.94 190.46 363.26 199.25 363.26 199.25" stroke="#120071" stroke-opacity="1.000000" stroke-width="2.095000" stroke-linejoin="round" stroke-linecap="round"/>
		<path id="Vector_44" d="M364.52 201.86C362.07 196.97 359.91 191.95 358.06 186.81C355.04 178.57 352.79 180.63 354.18 188.19C354.94 192.87 356.05 197.47 357.52 201.98" stroke="#120071" stroke-opacity="1.000000" stroke-width="2.095000" stroke-linejoin="round" stroke-linecap="round"/>
		<path id="Vector_45" d="M361.45 231.41C359.74 234.67 360.94 236.87 364.53 237.07C371.82 237.47 384.67 229.95 387.73 223.4C389.05 220.59 388.17 218.54 385.12 218.14" stroke="#120071" stroke-opacity="1.000000" stroke-width="2.095000" stroke-linejoin="round" stroke-linecap="round"/>
		<path id="Vector_46" d="M360.32 206.11C357.44 202.29 355.04 198.14 353.16 193.74C349.72 185.61 347.56 187.85 349.47 195.57C349.98 197.63 350.52 199.41 350.98 200.91C352.33 205.23 353.63 209.59 354.86 213.94C356.2 218.74 360.88 231.73 364.53 237.08" stroke="#120071" stroke-opacity="1.000000" stroke-width="2.095000" stroke-linejoin="round" stroke-linecap="round"/>
		<path id="Vector_47" d="M372.68 198.5C365.32 200.83 361.16 204.6 356.37 210.7" stroke="#120071" stroke-opacity="1.000000" stroke-width="2.095000" stroke-linejoin="round" stroke-linecap="round"/>
		<path id="Vector_48" d="M374.5 201.94C371.91 204.56 369.89 207.69 368.57 211.14C367.26 214.58 366.67 218.26 366.86 221.94" stroke="#120071" stroke-opacity="1.000000" stroke-width="2.095000" stroke-linejoin="round" stroke-linecap="round"/>
		<path id="Vector_49" d="M501.95 232.79C501.95 232.79 506.94 223.6 505.48 216.4C503.73 207.85 505.14 207.67 509.4 215.13C512.22 220.07 513.83 231.92 513.83 231.92" stroke="#120071" stroke-opacity="1.000000" stroke-width="2.095000" stroke-linejoin="round" stroke-linecap="round"/>
		<path id="Vector_50" d="M514.66 242.93C514.66 242.93 522.27 230.54 524.09 222.18C525.67 214.93 522.94 218.18 521.95 220.51" stroke="#120071" stroke-opacity="1.000000" stroke-width="2.095000" stroke-linejoin="round" stroke-linecap="round"/>
		<path id="Vector_51" d="M515.51 216.12C515.9 213.43 516.03 210.71 515.89 208C515.38 200.32 513.55 200.83 512.33 207.45C511.78 210.55 511.03 213.62 510.11 216.64" stroke="#120071" stroke-opacity="1.000000" stroke-width="2.095000" stroke-linejoin="round" stroke-linecap="round"/>
		<path id="Vector_52" d="M514.07 214.46C517.46 218.09 519.62 222.71 520.21 227.64" stroke="#120071" stroke-opacity="1.000000" stroke-width="2.095000" stroke-linejoin="round" stroke-linecap="round"/>
		<path id="Vector_53" d="M515.89 212C516.49 210.34 517.04 208.47 517.56 206.42C519.37 199.21 520.96 200.68 520.61 207.17C520.32 211.73 519.51 216.25 518.18 220.62" stroke="#120071" stroke-opacity="1.000000" stroke-width="2.095000" stroke-linejoin="round" stroke-linecap="round"/>
		<path id="Vector_54" d="M520.21 211.88C522.07 204.04 523.94 205.31 523.42 212.4C522.97 217.15 521.81 221.81 519.97 226.22" stroke="#120071" stroke-opacity="1.000000" stroke-width="2.095000" stroke-linejoin="round" stroke-linecap="round"/>
		<path id="Vector_55" d="M240.32 402.02L241.27 407.49" stroke="#120071" stroke-opacity="1.000000" stroke-width="2.095000" stroke-linejoin="round" stroke-linecap="round"/>
		<path id="Vector_56" d="M237.04 413.55L231.53 414.54" stroke="#120071" stroke-opacity="1.000000" stroke-width="2.095000" stroke-linejoin="round" stroke-linecap="round"/>
		<path id="Vector_57" d="M252.84 410.78L247.33 411.73" stroke="#120071" stroke-opacity="1.000000" stroke-width="2.095000" stroke-linejoin="round" stroke-linecap="round"/>
		<path id="Vector_58" d="M244.05 423.29L243.1 417.79" stroke="#120071" stroke-opacity="1.000000" stroke-width="2.095000" stroke-linejoin="round" stroke-linecap="round"/>
		<path id="Vector_59" d="M244.31 411.38C243.36 410.96 242.55 410.27 242 409.4C241.63 408.82 241.38 408.17 241.27 407.49C241.39 408.17 241.38 408.86 241.23 409.53C241.09 410.21 240.81 410.84 240.42 411.41C240.02 411.97 239.52 412.45 238.94 412.82C238.36 413.19 237.71 413.43 237.03 413.55C237.7 413.43 238.4 413.44 239.07 413.58C239.74 413.73 240.38 414.01 240.94 414.4C241.51 414.8 241.99 415.3 242.36 415.88C242.72 416.46 242.97 417.11 243.09 417.79C242.96 417.11 242.97 416.42 243.12 415.74C243.27 415.07 243.54 414.43 243.94 413.87C244.33 413.31 244.84 412.83 245.42 412.46C246 412.09 246.65 411.84 247.33 411.73C246.31 411.91 245.25 411.79 244.31 411.38Z" stroke="#120071" stroke-opacity="1.000000" stroke-width="2.095000" stroke-linejoin="round"/>
		<path id="Vector_60" d="M319.45 167.05L320.13 170.89" stroke="#120071" stroke-opacity="1.000000" stroke-width="2.095000" stroke-linejoin="round" stroke-linecap="round"/>
		<path id="Vector_61" d="M317.12 175.17L313.28 175.84" stroke="#120071" stroke-opacity="1.000000" stroke-width="2.095000" stroke-linejoin="round" stroke-linecap="round"/>
		<path id="Vector_62" d="M328.28 173.23L324.41 173.9" stroke="#120071" stroke-opacity="1.000000" stroke-width="2.095000" stroke-linejoin="round" stroke-linecap="round"/>
		<path id="Vector_63" d="M322.07 182.06L321.39 178.18" stroke="#120071" stroke-opacity="1.000000" stroke-width="2.095000" stroke-linejoin="round" stroke-linecap="round"/>
		<path id="Vector_64" d="M322.96 173.87C322.49 173.76 322.04 173.57 321.64 173.29C321.24 173.01 320.9 172.65 320.64 172.24C320.39 171.83 320.21 171.37 320.13 170.89C320.21 171.37 320.2 171.86 320.1 172.34C319.99 172.81 319.79 173.26 319.51 173.66C319.23 174.06 318.88 174.4 318.47 174.66C318.06 174.92 317.6 175.09 317.12 175.17C317.6 175.09 318.09 175.1 318.56 175.21C319.04 175.31 319.48 175.51 319.88 175.79C320.28 176.07 320.62 176.43 320.88 176.84C321.14 177.25 321.31 177.71 321.39 178.18C321.31 177.71 321.32 177.21 321.43 176.74C321.53 176.26 321.73 175.81 322.01 175.42C322.29 175.02 322.64 174.68 323.06 174.42C323.47 174.16 323.93 173.98 324.41 173.9C323.93 173.99 323.44 173.97 322.96 173.87Z" stroke="#120071" stroke-opacity="1.000000" stroke-width="2.095000" stroke-linejoin="round"/>
		<path id="Vector_65" d="M509.75 275.01L511.46 284.6" stroke="#120071" stroke-opacity="1.000000" stroke-width="2.095000" stroke-linejoin="round" stroke-linecap="round"/>
		<path id="Vector_66" d="M504.01 295.21L494.43 296.91" stroke="#120071" stroke-opacity="1.000000" stroke-width="2.095000" stroke-linejoin="round" stroke-linecap="round"/>
		<path id="Vector_67" d="M531.65 290.34L522.07 292.04" stroke="#120071" stroke-opacity="1.000000" stroke-width="2.095000" stroke-linejoin="round" stroke-linecap="round"/>
		<path id="Vector_68" d="M516.33 312.2L514.62 302.62" stroke="#120071" stroke-opacity="1.000000" stroke-width="2.095000" stroke-linejoin="round" stroke-linecap="round"/>
		<path id="Vector_69" d="M518.49 291.96C517.31 291.7 516.2 291.21 515.22 290.52C514.23 289.83 513.39 288.95 512.75 287.93C512.1 286.92 511.66 285.78 511.45 284.6C511.87 286.99 511.32 289.45 509.93 291.44C508.53 293.43 506.4 294.79 504.01 295.21C505.19 295 506.41 295.03 507.58 295.29C508.76 295.55 509.87 296.04 510.86 296.74C511.84 297.43 512.68 298.31 513.33 299.32C513.97 300.34 514.41 301.47 514.62 302.66C514.2 300.26 514.75 297.8 516.15 295.81C517.54 293.82 519.67 292.46 522.07 292.04C520.88 292.25 519.66 292.22 518.49 291.96Z" stroke="#120071" stroke-opacity="1.000000" stroke-width="2.095000" stroke-linejoin="round"/>
		<path id="Vector_70" d="M461.95 389.63L388.48 419.81" stroke="#120071" stroke-opacity="1.000000" stroke-width="2.095000" stroke-linejoin="round" stroke-linecap="round"/>
		<path id="Vector_71" d="M371.14 442.26L461.95 389.63L351.34 475.65" stroke="#120071" stroke-opacity="1.000000" stroke-width="2.095000" stroke-linejoin="round" stroke-linecap="round"/>
		<path id="Vector_72" d="M470.45 393.17C469.75 394.85 468.57 396.28 467.05 397.29C465.54 398.3 463.76 398.84 461.94 398.83C460.12 398.83 458.34 398.29 456.82 397.28C455.57 396.43 454.54 395.29 453.83 393.96C453.11 392.62 452.74 391.13 452.74 389.62C452.75 388.1 453.12 386.61 453.84 385.28C454.55 383.95 455.59 382.81 456.85 381.97C458.11 381.13 459.55 380.61 461.06 380.47C462.57 380.32 464.09 380.55 465.48 381.13C466.88 381.71 468.11 382.63 469.07 383.8C470.03 384.97 470.69 386.36 470.98 387.85C471.33 389.63 471.15 391.48 470.45 393.17Z" stroke="#120071" stroke-opacity="1.000000" stroke-width="2.095000" stroke-linejoin="round"/>
		<path id="Vector_73" d="M465.32 266.5C509.44 222.81 432.68 187.29 476.8 143.6" stroke="#120071" stroke-opacity="1.000000" stroke-width="2.095000" stroke-linejoin="round" stroke-linecap="round"/>
		<path id="Vector_74" d="M271.57 253.86L300.13 331.37" stroke="#120071" stroke-opacity="1.000000" stroke-width="2.095000" stroke-linejoin="round" stroke-linecap="round"/>
		<path id="Vector_75" d="M300.13 331.37C301.55 335.21 304.26 338.45 307.8 340.51C311.34 342.58 315.49 343.35 319.53 342.7" stroke="#120071" stroke-opacity="1.000000" stroke-width="2.095000" stroke-linejoin="round" stroke-linecap="round"/>
		<path id="Vector_76" d="M319.57 342.7L400.8 329.47" stroke="#120071" stroke-opacity="1.000000" stroke-width="2.095000" stroke-linejoin="round" stroke-linecap="round"/>
		<path id="Vector_77" d="M448.21 279.92L447.3 273.87L431.06 275.96L436.41 281.35L448.21 279.92Z" stroke="#120071" stroke-opacity="1.000000" stroke-width="2.095000" stroke-linejoin="round"/>
		<path id="Vector_78" d="M460.41 267.21L451.93 268.48C450.83 268.65 449.81 269.14 448.98 269.89C448.16 270.64 447.58 271.62 447.32 272.7C447.14 273.42 447.11 274.16 447.22 274.89L447.84 279.06C448.06 280.54 448.85 281.87 450.05 282.76C451.25 283.65 452.74 284.03 454.22 283.81L462.66 282.53" stroke="#120071" stroke-opacity="1.000000" stroke-width="2.095000" stroke-linejoin="round" stroke-linecap="round"/>
		<path id="Vector_79" d="M471.06 280.84C471.7 280.46 472.25 279.95 472.68 279.35C473.57 278.15 473.94 276.65 473.71 275.17L473.09 271C472.87 269.53 472.08 268.2 470.88 267.31C469.69 266.42 468.19 266.04 466.71 266.25L460.41 267.2C459.31 267.37 458.29 267.86 457.47 268.61C456.65 269.36 456.06 270.34 455.8 271.42C455.62 272.14 455.59 272.89 455.7 273.62L456.33 277.78C456.48 278.87 456.96 279.9 457.7 280.72C458.43 281.55 459.4 282.14 460.47 282.41C461.19 282.59 461.93 282.63 462.66 282.53L469 281.59C469.73 281.47 470.43 281.22 471.06 280.84Z" stroke="#120071" stroke-opacity="1.000000" stroke-width="2.095000" stroke-linejoin="round"/>
		<path id="Vector_80" d="M482.16 161.59C479.6 163.54 477.67 166.21 476.62 169.26C475.84 171.54 475.57 173.96 475.84 176.35C476.11 178.75 476.9 181.05 478.17 183.1C479.43 185.15 481.14 186.9 483.16 188.21C485.18 189.52 487.46 190.37 489.85 190.69C492.24 191.01 494.67 190.8 496.96 190.07C499.26 189.34 501.36 188.11 503.13 186.47C504.89 184.83 506.27 182.82 507.16 180.58C508.05 178.35 508.44 175.94 508.29 173.54C508.02 169.22 506.05 165.2 502.82 162.33C501.21 160.92 499.35 159.83 497.32 159.14C495.3 158.44 493.16 158.16 491.02 158.29C487.81 158.49 484.72 159.64 482.16 161.59ZM481.7 180.94C481.26 180.35 481.02 179.63 481.02 178.9C481.02 178.16 481.26 177.44 481.7 176.85C482.13 176.26 482.75 175.83 483.46 175.61C484.16 175.4 484.91 175.42 485.61 175.66C486.3 175.91 486.9 176.38 487.3 176.99C487.71 177.6 487.92 178.33 487.88 179.06C487.84 179.8 487.57 180.5 487.11 181.07C486.53 181.77 485.7 182.22 484.79 182.31C484.34 182.36 483.89 182.31 483.46 182.18C482.75 181.97 482.14 181.53 481.7 180.94ZM491.79 171.08C491.17 170.33 490.78 169.4 490.68 168.43C490.58 167.45 490.77 166.47 491.23 165.6C491.69 164.73 492.39 164.02 493.26 163.56C494.12 163.09 495.1 162.89 496.08 162.98C497.06 163.07 497.98 163.45 498.74 164.07C499.51 164.69 500.07 165.52 500.35 166.46C500.64 167.4 500.65 168.4 500.37 169.34C499.99 170.6 499.12 171.65 497.97 172.28C496.81 172.9 495.45 173.04 494.19 172.67C493.25 172.39 492.42 171.84 491.79 171.08ZM496.1 183.59C495.91 183.44 495.75 183.25 495.63 183.03C495.51 182.81 495.43 182.57 495.4 182.32C495.38 182.07 495.4 181.82 495.47 181.58C495.54 181.34 495.66 181.12 495.82 180.93C495.97 180.74 496.17 180.58 496.39 180.46C496.61 180.34 496.85 180.27 497.1 180.25C497.35 180.22 497.6 180.25 497.84 180.33C498.31 180.47 498.7 180.8 498.93 181.24C499.16 181.67 499.22 182.18 499.07 182.66C498.93 183.13 498.61 183.53 498.18 183.77C497.75 184 497.24 184.06 496.76 183.93C496.52 183.86 496.3 183.75 496.1 183.59Z" stroke="#120071" stroke-opacity="1.000000" stroke-width="2.095000"/>
	</g>
</svg>
