<svg width="171" height="25" viewBox="0 0 171 25" fill="none" xmlns="http://www.w3.org/2000/svg">
<path d="M12.0571 0L14.7641 8.33124H23.5241L16.4371 13.4802L19.1441 21.8115L12.0571 16.6625L4.97011 21.8115L7.67709 13.4802L0.590116 8.33124H9.3501L12.0571 0Z" fill="#F7E3AF"/>
<path d="M48.7266 0L51.4336 8.33124H60.1935L53.1066 13.4802L55.8136 21.8115L48.7266 16.6625L41.6396 21.8115L44.3466 13.4802L37.2596 8.33124H46.0196L48.7266 0Z" fill="#F7E3AF"/>
<path d="M85.3961 0L88.1031 8.33124H96.863L89.7761 13.4802L92.483 21.8115L85.3961 16.6625L78.3091 21.8115L81.0161 13.4802L73.9291 8.33124H82.6891L85.3961 0Z" fill="#F7E3AF"/>
<path d="M122.066 0L124.772 8.33124H133.532L126.445 13.4802L129.152 21.8115L122.066 16.6625L114.979 21.8115L117.686 13.4802L110.599 8.33124H119.359L122.066 0Z" fill="#F7E3AF"/>
<path d="M158.735 0L161.442 8.33124H170.202L163.115 13.4802L165.822 21.8115L158.735 16.6625L151.648 21.8115L154.355 13.4802L147.268 8.33124H156.028L158.735 0Z" fill="#F7E3AF"/>
</svg>
